<svg xmlns="http://www.w3.org/2000/svg" xmlns:xlink="http://www.w3.org/1999/xlink" xmlns:lucid="lucid" width="270.82" height="543.6"><g transform="translate(-687.8217425146839 -460)" lucid:page-tab-id="ZB76dO9C-CdN"><path d="M753.08 480H895.5v100.87H753.1z" stroke="#000" stroke-width="2" fill="#ffeca9"/><use xlink:href="#a" transform="matrix(1,0,0,1,758.076175309429,485) translate(12.099999999999994 17.24375)"/><use xlink:href="#b" transform="matrix(1,0,0,1,758.076175309429,485) translate(36.099999999999994 17.24375)"/><use xlink:href="#c" transform="matrix(1,0,0,1,758.076175309429,485) translate(66.5 38.84375)"/><use xlink:href="#d" transform="matrix(1,0,0,1,758.076175309429,485) translate(28.575000000000003 60.44375)"/><use xlink:href="#e" transform="matrix(1,0,0,1,758.076175309429,485) translate(62.575 60.44375)"/><use xlink:href="#f" transform="matrix(1,0,0,1,758.076175309429,485) translate(24.074999999999996 82.04375000000002)"/><path d="M753.08 661.74H895.5V762.6H753.1z" stroke="#000" stroke-width="2" fill="#c1e4f7"/><use xlink:href="#g" transform="matrix(1,0,0,1,758.076175309429,666.7391304347826) translate(20.025 17.24375)"/><use xlink:href="#h" transform="matrix(1,0,0,1,758.076175309429,666.7391304347826) translate(44.025 17.24375)"/><use xlink:href="#c" transform="matrix(1,0,0,1,758.076175309429,666.7391304347826) translate(66.5 38.84375)"/><use xlink:href="#i" transform="matrix(1,0,0,1,758.076175309429,666.7391304347826) translate(29.549999999999997 60.44375)"/><use xlink:href="#j" transform="matrix(1,0,0,1,758.076175309429,666.7391304347826) translate(53.55 60.44375)"/><use xlink:href="#k" transform="matrix(1,0,0,1,758.076175309429,666.7391304347826) translate(35.525 82.04375000000002)"/><path d="M753.08 838.26H895.5V940H753.1z" stroke="#000" stroke-width="2" fill="#c7e8ac"/><use xlink:href="#l" transform="matrix(1,0,0,1,758.076175309429,843.2608695652175) translate(15.574999999999996 37.4)"/><use xlink:href="#m" transform="matrix(1,0,0,1,758.076175309429,843.2608695652175) translate(76.475 37.4)"/><use xlink:href="#n" transform="matrix(1,0,0,1,758.076175309429,843.2608695652175) translate(26.025 59)"/><path d="M897.5 889.1h.7l1.64-.1 1.6-.18 1.54-.22 1.53-.3 1.5-.35 1.47-.4 1.45-.48 1.44-.53 1.42-.6 1.42-.67 1.4-.73 1.42-.82 1.4-.9 1.42-.98 1.42-1.08 1.43-1.18 1.44-1.3 1.45-1.43 1.46-1.56 1.5-1.74 1.5-1.9 1.5-2.1 1.54-2.3 1.55-2.54 1.54-2.82 1.54-3.12 1.53-3.44 1.5-3.8 1.46-4.2 1.4-4.6 1.28-5 1.16-5.45 1-5.84.77-6.18.54-6.46.27-6.63v-6.7l-.27-6.63-.55-6.46-.78-6.17-.98-5.83-1.16-5.44-1.28-5.02-1.4-4.6-1.45-4.18-1.5-3.8-1.53-3.45-1.55-3.1-1.56-2.82-1.54-2.55-1.53-2.3-1.52-2.1-1.5-1.9-1.5-1.72-1.46-1.55-1.47-1.43-1.44-1.3-1.44-1.18-1.42-1.08-1.42-1-1.4-.88-1.42-.82-.32-.16" stroke="#000" stroke-width="2" fill="none"/><path d="M897.56 890.1l-1.05.03v-2l1.02-.02z"/><path d="M899.65 719.35l14.97-1.05-2.24 9z" stroke="#000" stroke-width="2"/><path d="M734.25 885.56l-1.02-.54-1.47-.84-1.47-.94-1.48-1.02-1.48-1.12-1.5-1.24-1.5-1.35-1.5-1.48-1.54-1.63-1.55-1.8-1.57-1.98-1.58-2.18-1.6-2.4-1.6-2.66-1.6-2.93-1.62-3.25-1.6-3.58-1.56-3.96-1.52-4.37-1.45-4.8-1.34-5.22-1.2-5.67-1-6.06-.83-6.44-.56-6.72-.28-6.9v-6.98l.3-6.9.56-6.73.8-6.44 1.03-6.07 1.22-5.66 1.34-5.23 1.44-4.8 1.52-4.35 1.57-3.96 1.58-3.6 1.6-3.23 1.62-2.94 1.6-2.66 1.6-2.4 1.6-2.18 1.55-1.98 1.55-1.8 1.53-1.62 1.52-1.5 1.5-1.34 1.5-1.23 1.47-1.14 1.48-1.02 1.47-.94 1.46-.84 1.47-.77 1.48-.7 1.48-.63 1.5-.55 1.5-.5 1.54-.42 1.55-.37 1.6-.3 1.6-.24 1.67-.18 1.7-.1.76-.03" stroke="#000" stroke-width="2" fill="none"/><path d="M748.93 889.06l-14.96 1.2 2.16-9.02z" stroke="#000" stroke-width="2"/><path d="M752.08 713.17l-1 .03-.05-2 1.05-.03z"/><path d="M734.55 678.46l-.56-.36-1.23-.85-1.23-.94-1.24-1-1.25-1.13-1.26-1.24-1.28-1.35-1.3-1.5-1.3-1.63-1.3-1.8-1.32-2-1.34-2.2-1.34-2.45-1.33-2.7-1.34-2.97-1.3-3.3-1.26-3.62-1.2-3.96-1.1-4.34-1-4.7-.86-5.05-.68-5.35-.46-5.58-.24-5.73v-5.8l.24-5.74.46-5.58.68-5.34.85-5.05 1-4.7 1.1-4.35 1.2-3.98 1.26-3.62 1.3-3.3 1.33-2.97 1.33-2.7 1.33-2.43 1.34-2.2 1.32-2 1.32-1.8 1.3-1.64 1.28-1.48 1.27-1.36 1.25-1.23 1.25-1.12 1.24-1.02 1.23-.93 1.22-.85 1.2-.78 1.23-.7 1.22-.64 1.23-.58 1.23-.5 1.25-.47 1.25-.4 1.27-.37 1.3-.3 1.3-.25 1.36-.2 1.37-.13 1.42-.1h.46" stroke="#000" stroke-width="2" fill="none"/><path d="M748.97 682.65l-15 .47 2.6-8.9z" stroke="#000" stroke-width="2"/><path d="M752.08 537.05l-1 .02-.05-2 1.05-.02z"/><path d="M897.5 682.52h.52l1.46-.1 1.42-.15 1.38-.2 1.36-.27 1.33-.3 1.3-.37 1.3-.42 1.3-.47 1.26-.53 1.26-.6 1.25-.66 1.26-.72 1.26-.8 1.27-.88 1.26-.96 1.27-1.06 1.3-1.16 1.28-1.27 1.32-1.4 1.32-1.54 1.33-1.7 1.36-1.86 1.35-2.06 1.38-2.27 1.38-2.5 1.4-2.8 1.35-3.06 1.35-3.4 1.3-3.72 1.23-4.1 1.15-4.48 1.03-4.85.9-5.2.68-5.5.5-5.77.23-5.92v-5.96l-.24-5.92-.48-5.75-.7-5.52-.87-5.2-1.02-4.84-1.15-4.47-1.24-4.1-1.3-3.75-1.35-3.4-1.37-3.06-1.37-2.8-1.37-2.5-1.38-2.27-1.37-2.06-1.35-1.86-1.34-1.7-1.34-1.52-1.3-1.4-1.3-1.27-1.3-1.15-1.27-1.06-1.28-.97-1.26-.88-1.07-.67" stroke="#000" stroke-width="2" fill="none"/><path d="M897.56 683.52l-1.05.02v-2l1.02-.02z"/><path d="M899.63 531.3l15-.6-2.52 8.93z" stroke="#000" stroke-width="2"/><path d="M765.96 940h100v40h-100z" stroke="#000" stroke-opacity="0" stroke-width="2" fill="#fff" fill-opacity="0"/><g><use xlink:href="#o" transform="matrix(1,0,0,1,770.9601581220968,945) translate(2.5999999999999943 14.4)"/><use xlink:href="#p" transform="matrix(1,0,0,1,770.9601581220968,945) translate(19.075 36)"/></g><defs><path d="M54-142c48-35 137-8 131 61C196 18 31 33 14-55l32-4c7 23 22 37 52 37 35-1 51-22 54-58 4-55-73-65-99-34H22l8-134h141v27H59" id="q"/><path d="M141 0L90-78 38 0H4l68-98-65-92h35l48 74 47-74h35l-64 92 68 98h-35" id="r"/><g id="a"><use transform="matrix(0.05,0,0,0.05,0,0)" xlink:href="#q"/><use transform="matrix(0.05,0,0,0.05,10,0)" xlink:href="#r"/></g><path d="M205 0l-28-72H64L36 0H1l101-248h38L239 0h-34zm-38-99l-47-123c-12 45-31 82-46 123h93" id="s"/><path d="M24 0v-261h32V0H24" id="t"/><path d="M177-190C167-65 218 103 67 71c-23-6-38-20-44-43l32-5c15 47 100 32 89-28v-30C133-14 115 1 83 1 29 1 15-40 15-95c0-56 16-97 71-98 29-1 48 16 59 35 1-10 0-23 2-32h30zM94-22c36 0 50-32 50-73 0-42-14-75-50-75-39 0-46 34-46 75s6 73 46 73" id="u"/><path d="M100-194c62-1 85 37 85 99 1 63-27 99-86 99S16-35 15-95c0-66 28-99 85-99zM99-20c44 1 53-31 53-75 0-43-8-75-51-75s-53 32-53 75 10 74 51 75" id="v"/><path d="M114-163C36-179 61-72 57 0H25l-1-190h30c1 12-1 29 2 39 6-27 23-49 58-41v29" id="w"/><path d="M24-231v-30h32v30H24zM24 0v-190h32V0H24" id="x"/><path d="M59-47c-2 24 18 29 38 22v24C64 9 27 4 27-40v-127H5v-23h24l9-43h21v43h35v23H59v120" id="y"/><path d="M106-169C34-169 62-67 57 0H25v-261h32l-1 103c12-21 28-36 61-36 89 0 53 116 60 194h-32v-121c2-32-8-49-39-48" id="z"/><path d="M210-169c-67 3-38 105-44 169h-31v-121c0-29-5-50-35-48C34-165 62-65 56 0H25l-1-190h30c1 10-1 24 2 32 10-44 99-50 107 0 11-21 27-35 58-36 85-2 47 119 55 194h-31v-121c0-29-5-49-35-48" id="A"/><path d="M135-143c-3-34-86-38-87 0 15 53 115 12 119 90S17 21 10-45l28-5c4 36 97 45 98 0-10-56-113-15-118-90-4-57 82-63 122-42 12 7 21 19 24 35" id="B"/><g id="b"><use transform="matrix(0.05,0,0,0.05,0,0)" xlink:href="#s"/><use transform="matrix(0.05,0,0,0.05,12,0)" xlink:href="#t"/><use transform="matrix(0.05,0,0,0.05,15.949999999999998,0)" xlink:href="#u"/><use transform="matrix(0.05,0,0,0.05,25.950000000000003,0)" xlink:href="#v"/><use transform="matrix(0.05,0,0,0.05,35.95,0)" xlink:href="#w"/><use transform="matrix(0.05,0,0,0.05,41.900000000000006,0)" xlink:href="#x"/><use transform="matrix(0.05,0,0,0.05,45.85000000000001,0)" xlink:href="#y"/><use transform="matrix(0.05,0,0,0.05,50.85000000000001,0)" xlink:href="#z"/><use transform="matrix(0.05,0,0,0.05,60.85,0)" xlink:href="#A"/><use transform="matrix(0.05,0,0,0.05,75.80000000000001,0)" xlink:href="#B"/></g><path d="M27 0v-27h64v-190l-56 39v-29l58-41h29v221h61V0H27" id="C"/><path d="M101-251c68 0 85 55 85 127S166 4 100 4C33 4 14-52 14-124c0-73 17-127 87-127zm-1 229c47 0 54-49 54-102s-4-102-53-102c-51 0-55 48-55 102 0 53 5 102 54 102" id="D"/><g id="d"><use transform="matrix(0.05,0,0,0.05,0,0)" xlink:href="#C"/><use transform="matrix(0.05,0,0,0.05,10,0)" xlink:href="#D"/><use transform="matrix(0.05,0,0,0.05,20,0)" xlink:href="#r"/></g><path d="M33 0v-248h34V0H33" id="E"/><path d="M117-194c89-4 53 116 60 194h-32v-121c0-31-8-49-39-48C34-167 62-67 57 0H25l-1-190h30c1 10-1 24 2 32 11-22 29-35 61-36" id="F"/><path d="M141-36C126-15 110 5 73 4 37 3 15-17 15-53c-1-64 63-63 125-63 3-35-9-54-41-54-24 1-41 7-42 31l-33-3c5-37 33-52 76-52 45 0 72 20 72 64v82c-1 20 7 32 28 27v20c-31 9-61-2-59-35zM48-53c0 20 12 33 32 33 41-3 63-29 60-74-43 2-92-5-92 41" id="G"/><g id="e"><use transform="matrix(0.05,0,0,0.05,0,0)" xlink:href="#E"/><use transform="matrix(0.05,0,0,0.05,5,0)" xlink:href="#F"/><use transform="matrix(0.05,0,0,0.05,15,0)" xlink:href="#x"/><use transform="matrix(0.05,0,0,0.05,18.95,0)" xlink:href="#y"/><use transform="matrix(0.05,0,0,0.05,23.95,0)" xlink:href="#x"/><use transform="matrix(0.05,0,0,0.05,27.899999999999995,0)" xlink:href="#G"/><use transform="matrix(0.05,0,0,0.05,37.9,0)" xlink:href="#t"/></g><path d="M212-179c-10-28-35-45-73-45-59 0-87 40-87 99 0 60 29 101 89 101 43 0 62-24 78-52l27 14C228-24 195 4 139 4 59 4 22-46 18-125c-6-104 99-153 187-111 19 9 31 26 39 46" id="H"/><path d="M85-194c31 0 48 13 60 33l-1-100h32l1 261h-30c-2-10 0-23-3-31C134-8 116 4 85 4 32 4 16-35 15-94c0-66 23-100 70-100zm9 24c-40 0-46 34-46 75 0 40 6 74 45 74 42 0 51-32 51-76 0-42-9-74-50-73" id="I"/><g id="f"><use transform="matrix(0.05,0,0,0.05,0,0)" xlink:href="#H"/><use transform="matrix(0.05,0,0,0.05,12.950000000000001,0)" xlink:href="#v"/><use transform="matrix(0.05,0,0,0.05,22.950000000000003,0)" xlink:href="#F"/><use transform="matrix(0.05,0,0,0.05,32.95,0)" xlink:href="#I"/><use transform="matrix(0.05,0,0,0.05,42.95,0)" xlink:href="#x"/><use transform="matrix(0.05,0,0,0.05,46.900000000000006,0)" xlink:href="#y"/><use transform="matrix(0.05,0,0,0.05,51.900000000000006,0)" xlink:href="#x"/><use transform="matrix(0.05,0,0,0.05,55.85,0)" xlink:href="#v"/><use transform="matrix(0.05,0,0,0.05,65.85000000000001,0)" xlink:href="#F"/><use transform="matrix(0.05,0,0,0.05,75.85000000000001,0)" xlink:href="#B"/></g><path d="M126-127c33 6 58 20 58 59 0 88-139 92-164 29-3-8-5-16-6-25l32-3c6 27 21 44 54 44 32 0 52-15 52-46 0-38-36-46-79-43v-28c39 1 72-4 72-42 0-27-17-43-46-43-28 0-47 15-49 41l-32-3c6-42 35-63 81-64 48-1 79 21 79 65 0 36-21 52-52 59" id="J"/><g id="g"><use transform="matrix(0.05,0,0,0.05,0,0)" xlink:href="#J"/><use transform="matrix(0.05,0,0,0.05,10,0)" xlink:href="#r"/></g><path d="M240 0l2-218c-23 76-54 145-80 218h-23L58-218 59 0H30v-248h44l77 211c21-75 51-140 76-211h43V0h-30" id="K"/><path d="M100-194c63 0 86 42 84 106H49c0 40 14 67 53 68 26 1 43-12 49-29l28 8c-11 28-37 45-77 45C44 4 14-33 15-96c1-61 26-98 85-98zm52 81c6-60-76-77-97-28-3 7-6 17-6 28h103" id="L"/><g id="h"><use transform="matrix(0.05,0,0,0.05,0,0)" xlink:href="#K"/><use transform="matrix(0.05,0,0,0.05,14.950000000000001,0)" xlink:href="#L"/><use transform="matrix(0.05,0,0,0.05,24.950000000000003,0)" xlink:href="#y"/><use transform="matrix(0.05,0,0,0.05,29.950000000000003,0)" xlink:href="#z"/><use transform="matrix(0.05,0,0,0.05,39.95,0)" xlink:href="#v"/><use transform="matrix(0.05,0,0,0.05,49.95,0)" xlink:href="#I"/><use transform="matrix(0.05,0,0,0.05,59.95,0)" xlink:href="#B"/></g><g id="i"><use transform="matrix(0.05,0,0,0.05,0,0)" xlink:href="#J"/><use transform="matrix(0.05,0,0,0.05,10,0)" xlink:href="#r"/></g><path d="M127-220V0H93v-220H8v-28h204v28h-85" id="M"/><g id="j"><use transform="matrix(0.05,0,0,0.05,0,0)" xlink:href="#M"/><use transform="matrix(0.05,0,0,0.05,8.950000000000001,0)" xlink:href="#G"/><use transform="matrix(0.05,0,0,0.05,18.950000000000003,0)" xlink:href="#w"/><use transform="matrix(0.05,0,0,0.05,24.900000000000002,0)" xlink:href="#u"/><use transform="matrix(0.05,0,0,0.05,34.900000000000006,0)" xlink:href="#L"/><use transform="matrix(0.05,0,0,0.05,44.900000000000006,0)" xlink:href="#y"/></g><g id="k"><use transform="matrix(0.05,0,0,0.05,0,0)" xlink:href="#K"/><use transform="matrix(0.05,0,0,0.05,14.950000000000001,0)" xlink:href="#G"/><use transform="matrix(0.05,0,0,0.05,24.950000000000003,0)" xlink:href="#B"/><use transform="matrix(0.05,0,0,0.05,33.95,0)" xlink:href="#B"/><use transform="matrix(0.05,0,0,0.05,42.95,0)" xlink:href="#L"/><use transform="matrix(0.05,0,0,0.05,52.95,0)" xlink:href="#B"/></g><path d="M30-248c118-7 216 8 213 122C240-48 200 0 122 0H30v-248zM63-27c89 8 146-16 146-99s-60-101-146-95v194" id="N"/><g id="l"><use transform="matrix(0.05,0,0,0.05,0,0)" xlink:href="#N"/><use transform="matrix(0.05,0,0,0.05,12.950000000000001,0)" xlink:href="#L"/><use transform="matrix(0.05,0,0,0.05,22.950000000000003,0)" xlink:href="#B"/><use transform="matrix(0.05,0,0,0.05,31.950000000000003,0)" xlink:href="#x"/><use transform="matrix(0.05,0,0,0.05,35.900000000000006,0)" xlink:href="#u"/><use transform="matrix(0.05,0,0,0.05,45.900000000000006,0)" xlink:href="#F"/></g><path d="M30-248c87 1 191-15 191 75 0 78-77 80-158 76V0H30v-248zm33 125c57 0 124 11 124-50 0-59-68-47-124-48v98" id="O"/><g id="m"><use transform="matrix(0.05,0,0,0.05,0,0)" xlink:href="#O"/><use transform="matrix(0.05,0,0,0.05,12,0)" xlink:href="#v"/><use transform="matrix(0.05,0,0,0.05,22,0)" xlink:href="#x"/><use transform="matrix(0.05,0,0,0.05,25.950000000000003,0)" xlink:href="#F"/><use transform="matrix(0.05,0,0,0.05,35.95,0)" xlink:href="#y"/></g><path d="M233-177c-1 41-23 64-60 70L243 0h-38l-65-103H63V0H30v-248c88 3 205-21 203 71zM63-129c60-2 137 13 137-47 0-61-80-42-137-45v92" id="P"/><path d="M115-194c55 1 70 41 70 98S169 2 115 4C84 4 66-9 55-30l1 105H24l-1-265h31l2 30c10-21 28-34 59-34zm-8 174c40 0 45-34 45-75s-6-73-45-74c-42 0-51 32-51 76 0 43 10 73 51 73" id="Q"/><g id="n"><use transform="matrix(0.05,0,0,0.05,0,0)" xlink:href="#P"/><use transform="matrix(0.05,0,0,0.05,12.950000000000001,0)" xlink:href="#L"/><use transform="matrix(0.05,0,0,0.05,22.950000000000003,0)" xlink:href="#B"/><use transform="matrix(0.05,0,0,0.05,31.950000000000003,0)" xlink:href="#Q"/><use transform="matrix(0.05,0,0,0.05,41.95,0)" xlink:href="#v"/><use transform="matrix(0.05,0,0,0.05,51.95,0)" xlink:href="#F"/><use transform="matrix(0.05,0,0,0.05,61.95,0)" xlink:href="#B"/><use transform="matrix(0.05,0,0,0.05,70.95,0)" xlink:href="#L"/></g><path fill="#c92d39" d="M169-182c-1-43-94-46-97-3 18 66 151 10 154 114 3 95-165 93-204 36-6-8-10-19-12-30l50-8c3 46 112 56 116 5-17-69-150-10-154-114-4-87 153-88 188-35 5 8 8 18 10 28" id="R"/><path fill="#c92d39" d="M85 4C-2 5 27-109 22-190h50c7 57-23 150 33 157 60-5 35-97 40-157h50l1 190h-47c-2-12 1-28-3-38-12 25-28 42-61 42" id="S"/><path fill="#c92d39" d="M135-150c-39-12-60 13-60 57V0H25l-1-190h47c2 13-1 29 3 40 6-28 27-53 61-41v41" id="T"/><path fill="#c92d39" d="M110-194c64 0 96 36 96 99 0 64-35 99-97 99-61 0-95-36-95-99 0-62 34-99 96-99zm-1 164c35 0 45-28 45-65 0-40-10-65-43-65-34 0-45 26-45 65 0 36 10 65 43 65" id="U"/><path fill="#c92d39" d="M195-6C206 82 75 100 31 46c-4-6-6-13-8-21l49-6c3 16 16 24 34 25 40 0 42-37 40-79-11 22-30 35-61 35-53 0-70-43-70-97 0-56 18-96 73-97 30 0 46 14 59 34l2-30h47zm-90-29c32 0 41-27 41-63 0-35-9-62-40-62-32 0-39 29-40 63 0 36 9 62 39 62" id="V"/><path fill="#c92d39" d="M133-34C117-15 103 5 69 4 32 3 11-16 11-54c-1-60 55-63 116-61 1-26-3-47-28-47-18 1-26 9-28 27l-52-2c7-38 36-58 82-57s74 22 75 68l1 82c-1 14 12 18 25 15v27c-30 8-71 5-69-32zm-48 3c29 0 43-24 42-57-32 0-66-3-65 30 0 17 8 27 23 27" id="W"/><path fill="#c92d39" d="M115-3C79 11 28 4 28-45v-112H4v-33h27l15-45h31v45h36v33H77v99c-1 23 16 31 38 25v30" id="X"/><path fill="#c92d39" d="M185-48c-13 30-37 53-82 52C43 2 14-33 14-96s30-98 90-98c62 0 83 45 84 108H66c0 31 8 55 39 56 18 0 30-7 34-22zm-45-69c5-46-57-63-70-21-2 6-4 13-4 21h74" id="Y"/><g id="o"><use transform="matrix(0.05,0,0,0.05,0,0)" xlink:href="#R"/><use transform="matrix(0.05,0,0,0.05,12,0)" xlink:href="#S"/><use transform="matrix(0.05,0,0,0.05,22.950000000000003,0)" xlink:href="#T"/><use transform="matrix(0.05,0,0,0.05,29.950000000000003,0)" xlink:href="#T"/><use transform="matrix(0.05,0,0,0.05,36.95,0)" xlink:href="#U"/><use transform="matrix(0.05,0,0,0.05,47.900000000000006,0)" xlink:href="#V"/><use transform="matrix(0.05,0,0,0.05,58.85,0)" xlink:href="#W"/><use transform="matrix(0.05,0,0,0.05,68.85000000000001,0)" xlink:href="#X"/><use transform="matrix(0.05,0,0,0.05,74.80000000000001,0)" xlink:href="#Y"/></g><path fill="#c92d39" d="M230 0l2-204L168 0h-37L68-204 70 0H24v-248h70l56 185 57-185h69V0h-46" id="Z"/><path fill="#c92d39" d="M88-194c31-1 46 15 58 34l-1-101h50l1 261h-48c-2-10 0-23-3-31C134-8 116 4 84 4 32 4 16-41 15-95c0-56 19-97 73-99zm17 164c33 0 40-30 41-66 1-37-9-64-41-64s-38 30-39 65c0 43 13 65 39 65" id="aa"/><path fill="#c92d39" d="M25 0v-261h50V0H25" id="ab"/><g id="p"><use transform="matrix(0.05,0,0,0.05,0,0)" xlink:href="#Z"/><use transform="matrix(0.05,0,0,0.05,14.950000000000001,0)" xlink:href="#U"/><use transform="matrix(0.05,0,0,0.05,25.900000000000002,0)" xlink:href="#aa"/><use transform="matrix(0.05,0,0,0.05,36.85,0)" xlink:href="#Y"/><use transform="matrix(0.05,0,0,0.05,46.85,0)" xlink:href="#ab"/></g></defs></g></svg>