<svg xmlns="http://www.w3.org/2000/svg" xmlns:xlink="http://www.w3.org/1999/xlink" xmlns:lucid="lucid" width="631" height="260"><g transform="translate(-560 -780)" lucid:page-tab-id=".-66GvqvUM8n"><path d="M0 0h1870.4v1323.2H0z" fill="#fff"/><path d="M720 800h280v220H720z" stroke="#000" stroke-width="2" fill="#c1e4f7"/><use xlink:href="#a" transform="matrix(1,0,0,1,725,805) translate(36.04999999999998 14.4)"/><use xlink:href="#b" transform="matrix(1,0,0,1,725,805) translate(154.45 14.4)"/><use xlink:href="#c" transform="matrix(1,0,0,1,725,805) translate(223.95000000000002 14.4)"/><use xlink:href="#d" transform="matrix(1,0,0,1,725,805) translate(76.6 36)"/><use xlink:href="#e" transform="matrix(1,0,0,1,725,805) translate(117.55 36)"/><path d="M580 880h120v40H580z" stroke="#000" stroke-opacity="0" stroke-width="2" fill="#fff" fill-opacity="0"/><use xlink:href="#f" transform="matrix(1,0,0,1,585,885) translate(3.549999999999997 18.15)"/><use xlink:href="#g" transform="matrix(1,0,0,1,585,885) translate(87.45 18.15)"/><path d="M780 880h160v120H780z" stroke="#000" stroke-width="2" fill="#fff"/><use xlink:href="#h" transform="matrix(1,0,0,1,785,885) translate(44.5 48.775)"/><use xlink:href="#i" transform="matrix(1,0,0,1,785,885) translate(10.149999999999991 70.375)"/><use xlink:href="#j" transform="matrix(1,0,0,1,785,885) translate(98.95 70.375)"/><path d="M580 960h120v40H580z" stroke="#000" stroke-opacity="0" stroke-width="2" fill="#fff" fill-opacity="0"/><use xlink:href="#k" transform="matrix(1,0,0,1,585,965) translate(6.599999999999994 18.15)"/><use xlink:href="#g" transform="matrix(1,0,0,1,585,965) translate(84.4 18.15)"/><path d="M581 940h179.5M581.03 940H580" stroke="#000" stroke-width="2" fill="none"/><path d="M775.76 940l-14.26 4.64v-9.28z" stroke="#000" stroke-width="2"/><path d="M1000 880h160v40h-160z" stroke="#000" stroke-opacity="0" stroke-width="2" fill="#fff" fill-opacity="0"/><g><use xlink:href="#l" transform="matrix(1,0,0,1,1005,885) translate(16.049999999999997 18.15)"/><use xlink:href="#m" transform="matrix(1,0,0,1,1005,885) translate(45.05 18.15)"/></g><path d="M942 940h199.5" stroke="#000" stroke-width="2" fill="none"/><path d="M942.03 941H941v-2h1.03z"/><path d="M1156.76 940l-14.26 4.64v-9.28z" stroke="#000" stroke-width="2"/><path d="M1000 960h160v40h-160z" stroke="#000" stroke-opacity="0" stroke-width="2" fill="#fff" fill-opacity="0"/><g><use xlink:href="#n" transform="matrix(1,0,0,1,1005,965) translate(53.525 18.15)"/></g><defs><path d="M169-182c-1-43-94-46-97-3 18 66 151 10 154 114 3 95-165 93-204 36-6-8-10-19-12-30l50-8c3 46 112 56 116 5-17-69-150-10-154-114-4-87 153-88 188-35 5 8 8 18 10 28" id="o"/><path d="M238-95c0 69-44 99-111 99C63 4 22-25 22-93v-155h51v151c-1 38 19 59 55 60 90 1 49-130 58-211h52v153" id="p"/><path d="M240-174c0 40-23 61-54 70L253 0h-59l-57-94H76V0H24v-248c93 4 217-23 216 74zM76-134c48-2 112 12 112-38 0-48-66-32-112-35v73" id="q"/><path d="M140-251c80 0 125 45 125 126S219 4 139 4C58 4 15-44 15-125s44-126 125-126zm-1 214c52 0 73-35 73-88 0-50-21-86-72-86-52 0-73 35-73 86s22 88 72 88" id="r"/><path d="M67-125c0 54 23 88 75 88 28 0 53-7 68-21v-34h-60v-39h108v91C232-14 192 4 140 4 58 4 20-42 15-125 8-236 126-280 215-234c19 10 29 26 37 47l-47 15c-11-23-29-39-63-39-53 1-75 33-75 86" id="s"/><path d="M199 0l-22-63H83L61 0H9l90-248h61L250 0h-51zm-33-102l-36-108c-10 38-24 72-36 108h72" id="t"/><path d="M136-208V0H84v-208H4v-40h212v40h-80" id="u"/><path d="M24 0v-248h195v40H76v63h132v40H76v65h150V0H24" id="v"/><g id="a"><use transform="matrix(0.05,0,0,0.05,0,0)" xlink:href="#o"/><use transform="matrix(0.05,0,0,0.05,12,0)" xlink:href="#p"/><use transform="matrix(0.05,0,0,0.05,24.950000000000003,0)" xlink:href="#q"/><use transform="matrix(0.05,0,0,0.05,37.900000000000006,0)" xlink:href="#q"/><use transform="matrix(0.05,0,0,0.05,50.85000000000001,0)" xlink:href="#r"/><use transform="matrix(0.05,0,0,0.05,64.85000000000001,0)" xlink:href="#s"/><use transform="matrix(0.05,0,0,0.05,78.85000000000001,0)" xlink:href="#t"/><use transform="matrix(0.05,0,0,0.05,90.45000000000002,0)" xlink:href="#u"/><use transform="matrix(0.05,0,0,0.05,101.40000000000002,0)" xlink:href="#v"/></g><path d="M230 0l2-204L168 0h-37L68-204 70 0H24v-248h70l56 185 57-185h69V0h-46" id="w"/><path d="M24-248c120-7 223 5 221 122C244-46 201 0 124 0H24v-248zM76-40c74 7 117-18 117-86 0-67-45-88-117-82v168" id="x"/><path d="M24 0v-248h52v208h133V0H24" id="y"/><g id="b"><use transform="matrix(0.05,0,0,0.05,0,0)" xlink:href="#w"/><use transform="matrix(0.05,0,0,0.05,14.950000000000001,0)" xlink:href="#r"/><use transform="matrix(0.05,0,0,0.05,28.950000000000003,0)" xlink:href="#x"/><use transform="matrix(0.05,0,0,0.05,41.900000000000006,0)" xlink:href="#v"/><use transform="matrix(0.05,0,0,0.05,53.900000000000006,0)" xlink:href="#y"/></g><path d="M23 0v-37h61v-169l-59 37v-38l62-41h46v211h57V0H23" id="z"/><use transform="matrix(0.05,0,0,0.05,0,0)" xlink:href="#z" id="c"/><path d="M87 75C49 33 22-17 22-94c0-76 28-126 65-167h31c-38 41-64 92-64 168S80 34 118 75H87" id="A"/><path d="M101-251c82-7 93 87 43 132L82-64C71-53 59-42 53-27h129V0H18c2-99 128-94 128-182 0-28-16-43-45-43s-46 15-49 41l-32-3c6-41 34-60 81-64" id="B"/><path d="M101-251c68 0 85 55 85 127S166 4 100 4C33 4 14-52 14-124c0-73 17-127 87-127zm-1 229c47 0 54-49 54-102s-4-102-53-102c-51 0-55 48-55 102 0 53 5 102 54 102" id="C"/><g id="d"><use transform="matrix(0.05,0,0,0.05,0,0)" xlink:href="#A"/><use transform="matrix(0.05,0,0,0.05,5.95,0)" xlink:href="#B"/><use transform="matrix(0.05,0,0,0.05,15.949999999999998,0)" xlink:href="#C"/><use transform="matrix(0.05,0,0,0.05,25.950000000000003,0)" xlink:href="#C"/></g><path d="M185-189c-5-48-123-54-124 2 14 75 158 14 163 119 3 78-121 87-175 55-17-10-28-26-33-46l33-7c5 56 141 63 141-1 0-78-155-14-162-118-5-82 145-84 179-34 5 7 8 16 11 25" id="D"/><path d="M141-36C126-15 110 5 73 4 37 3 15-17 15-53c-1-64 63-63 125-63 3-35-9-54-41-54-24 1-41 7-42 31l-33-3c5-37 33-52 76-52 45 0 72 20 72 64v82c-1 20 7 32 28 27v20c-31 9-61-2-59-35zM48-53c0 20 12 33 32 33 41-3 63-29 60-74-43 2-92-5-92 41" id="E"/><path d="M210-169c-67 3-38 105-44 169h-31v-121c0-29-5-50-35-48C34-165 62-65 56 0H25l-1-190h30c1 10-1 24 2 32 10-44 99-50 107 0 11-21 27-35 58-36 85-2 47 119 55 194h-31v-121c0-29-5-49-35-48" id="F"/><path d="M115-194c55 1 70 41 70 98S169 2 115 4C84 4 66-9 55-30l1 105H24l-1-265h31l2 30c10-21 28-34 59-34zm-8 174c40 0 45-34 45-75s-6-73-45-74c-42 0-51 32-51 76 0 43 10 73 51 73" id="G"/><path d="M24 0v-261h32V0H24" id="H"/><path d="M100-194c63 0 86 42 84 106H49c0 40 14 67 53 68 26 1 43-12 49-29l28 8c-11 28-37 45-77 45C44 4 14-33 15-96c1-61 26-98 85-98zm52 81c6-60-76-77-97-28-3 7-6 17-6 28h103" id="I"/><path d="M135-143c-3-34-86-38-87 0 15 53 115 12 119 90S17 21 10-45l28-5c4 36 97 45 98 0-10-56-113-15-118-90-4-57 82-63 122-42 12 7 21 19 24 35" id="J"/><path d="M33-261c38 41 65 92 65 168S71 34 33 75H2C39 34 66-17 66-93S39-220 2-261h31" id="K"/><g id="e"><use transform="matrix(0.05,0,0,0.05,0,0)" xlink:href="#D"/><use transform="matrix(0.05,0,0,0.05,12,0)" xlink:href="#E"/><use transform="matrix(0.05,0,0,0.05,22,0)" xlink:href="#F"/><use transform="matrix(0.05,0,0,0.05,36.95,0)" xlink:href="#G"/><use transform="matrix(0.05,0,0,0.05,46.95,0)" xlink:href="#H"/><use transform="matrix(0.05,0,0,0.05,50.900000000000006,0)" xlink:href="#I"/><use transform="matrix(0.05,0,0,0.05,60.900000000000006,0)" xlink:href="#J"/><use transform="matrix(0.05,0,0,0.05,69.9,0)" xlink:href="#K"/></g><path d="M143 4C61 4 22-44 18-125c-5-107 100-154 193-111 17 8 29 25 37 43l-32 9c-13-25-37-40-76-40-61 0-88 39-88 99 0 61 29 100 91 101 35 0 62-11 79-27v-45h-74v-28h105v86C228-13 192 4 143 4" id="L"/><path d="M100-194c62-1 85 37 85 99 1 63-27 99-86 99S16-35 15-95c0-66 28-99 85-99zM99-20c44 1 53-31 53-75 0-43-8-75-51-75s-53 32-53 75 10 74 51 75" id="M"/><path d="M59-47c-2 24 18 29 38 22v24C64 9 27 4 27-40v-127H5v-23h24l9-43h21v43h35v23H59v120" id="N"/><path d="M114-163C36-179 61-72 57 0H25l-1-190h30c1 12-1 29 2 39 6-27 23-49 58-41v29" id="O"/><path d="M179-190L93 31C79 59 56 82 12 73V49c39 6 53-20 64-50L1-190h34L92-34l54-156h33" id="P"/><g id="f"><use transform="matrix(0.05,0,0,0.05,0,0)" xlink:href="#L"/><use transform="matrix(0.05,0,0,0.05,14,0)" xlink:href="#I"/><use transform="matrix(0.05,0,0,0.05,24,0)" xlink:href="#M"/><use transform="matrix(0.05,0,0,0.05,34,0)" xlink:href="#F"/><use transform="matrix(0.05,0,0,0.05,48.95,0)" xlink:href="#I"/><use transform="matrix(0.05,0,0,0.05,58.95,0)" xlink:href="#N"/><use transform="matrix(0.05,0,0,0.05,63.95,0)" xlink:href="#O"/><use transform="matrix(0.05,0,0,0.05,69.9,0)" xlink:href="#P"/></g><path d="M141 0L90-78 38 0H4l68-98-65-92h35l48 74 47-74h35l-64 92 68 98h-35" id="Q"/><path d="M155-56V0h-30v-56H8v-25l114-167h33v167h35v25h-35zm-30-156c-27 46-58 90-88 131h88v-131" id="R"/><g id="g"><use transform="matrix(0.05,0,0,0.05,0,0)" xlink:href="#Q"/><use transform="matrix(0.05,0,0,0.05,9,0)" xlink:href="#R"/></g><path d="M205 0l-28-72H64L36 0H1l101-248h38L239 0h-34zm-38-99l-47-123c-12 45-31 82-46 123h93" id="S"/><path d="M115-194c53 0 69 39 70 98 0 66-23 100-70 100C84 3 66-7 56-30L54 0H23l1-261h32v101c10-23 28-34 59-34zm-8 174c40 0 45-34 45-75 0-40-5-75-45-74-42 0-51 32-51 76 0 43 10 73 51 73" id="T"/><path d="M145-31C134-9 116 4 85 4 32 4 16-35 15-94c0-59 17-99 70-100 32-1 48 14 60 33 0-11-1-24 2-32h30l-1 268h-32zM93-21c41 0 51-33 51-76s-8-73-50-73c-40 0-46 35-46 75s5 74 45 74" id="U"/><path d="M84 4C-5 8 30-112 23-190h32v120c0 31 7 50 39 49 72-2 45-101 50-169h31l1 190h-30c-1-10 1-25-2-33-11 22-28 36-60 37" id="V"/><g id="h"><use transform="matrix(0.05,0,0,0.05,0,0)" xlink:href="#S"/><use transform="matrix(0.05,0,0,0.05,12,0)" xlink:href="#T"/><use transform="matrix(0.05,0,0,0.05,22,0)" xlink:href="#E"/><use transform="matrix(0.05,0,0,0.05,32,0)" xlink:href="#U"/><use transform="matrix(0.05,0,0,0.05,42,0)" xlink:href="#V"/><use transform="matrix(0.05,0,0,0.05,52,0)" xlink:href="#J"/></g><path d="M24-231v-30h32v30H24zM24 0v-190h32V0H24" id="W"/><path d="M117-194c89-4 53 116 60 194h-32v-121c0-31-8-49-39-48C34-167 62-67 57 0H25l-1-190h30c1 10-1 24 2 32 11-22 29-35 61-36" id="X"/><g id="i"><use transform="matrix(0.05,0,0,0.05,0,0)" xlink:href="#D"/><use transform="matrix(0.05,0,0,0.05,12,0)" xlink:href="#W"/><use transform="matrix(0.05,0,0,0.05,15.949999999999998,0)" xlink:href="#F"/><use transform="matrix(0.05,0,0,0.05,30.899999999999995,0)" xlink:href="#V"/><use transform="matrix(0.05,0,0,0.05,40.9,0)" xlink:href="#H"/><use transform="matrix(0.05,0,0,0.05,44.85,0)" xlink:href="#E"/><use transform="matrix(0.05,0,0,0.05,54.85,0)" xlink:href="#N"/><use transform="matrix(0.05,0,0,0.05,59.85,0)" xlink:href="#W"/><use transform="matrix(0.05,0,0,0.05,63.800000000000004,0)" xlink:href="#M"/><use transform="matrix(0.05,0,0,0.05,73.80000000000001,0)" xlink:href="#X"/></g><path d="M126-127c33 6 58 20 58 59 0 88-139 92-164 29-3-8-5-16-6-25l32-3c6 27 21 44 54 44 32 0 52-15 52-46 0-38-36-46-79-43v-28c39 1 72-4 72-42 0-27-17-43-46-43-28 0-47 15-49 41l-32-3c6-42 35-63 81-64 48-1 79 21 79 65 0 36-21 52-52 59" id="Y"/><g id="j"><use transform="matrix(0.05,0,0,0.05,0,0)" xlink:href="#A"/><use transform="matrix(0.05,0,0,0.05,5.95,0)" xlink:href="#Y"/><use transform="matrix(0.05,0,0,0.05,15.949999999999998,0)" xlink:href="#C"/><use transform="matrix(0.05,0,0,0.05,25.950000000000003,0)" xlink:href="#J"/><use transform="matrix(0.05,0,0,0.05,34.95,0)" xlink:href="#K"/></g><path d="M240 0l2-218c-23 76-54 145-80 218h-23L58-218 59 0H30v-248h44l77 211c21-75 51-140 76-211h43V0h-30" id="Z"/><g id="k"><use transform="matrix(0.05,0,0,0.05,0,0)" xlink:href="#Z"/><use transform="matrix(0.05,0,0,0.05,14.950000000000001,0)" xlink:href="#E"/><use transform="matrix(0.05,0,0,0.05,24.950000000000003,0)" xlink:href="#N"/><use transform="matrix(0.05,0,0,0.05,29.950000000000003,0)" xlink:href="#I"/><use transform="matrix(0.05,0,0,0.05,39.95,0)" xlink:href="#O"/><use transform="matrix(0.05,0,0,0.05,45.900000000000006,0)" xlink:href="#W"/><use transform="matrix(0.05,0,0,0.05,49.85000000000001,0)" xlink:href="#E"/><use transform="matrix(0.05,0,0,0.05,59.85,0)" xlink:href="#H"/><use transform="matrix(0.05,0,0,0.05,63.80000000000001,0)" xlink:href="#J"/></g><path d="M27 0v-27h64v-190l-56 39v-29l58-41h29v221h61V0H27" id="aa"/><g id="l"><use transform="matrix(0.05,0,0,0.05,0,0)" xlink:href="#aa"/><use transform="matrix(0.05,0,0,0.05,10,0)" xlink:href="#J"/><use transform="matrix(0.05,0,0,0.05,19,0)" xlink:href="#N"/></g><path d="M30 0v-248h187v28H63v79h144v27H63v87h162V0H30" id="ab"/><path d="M177-190C167-65 218 103 67 71c-23-6-38-20-44-43l32-5c15 47 100 32 89-28v-30C133-14 115 1 83 1 29 1 15-40 15-95c0-56 16-97 71-98 29-1 48 16 59 35 1-10 0-23 2-32h30zM94-22c36 0 50-32 50-73 0-42-14-75-50-75-39 0-46 34-46 75s6 73 46 73" id="ac"/><path d="M108 0H70L1-190h34L89-25l56-165h34" id="ad"/><g id="m"><use transform="matrix(0.05,0,0,0.05,0,0)" xlink:href="#ab"/><use transform="matrix(0.05,0,0,0.05,12,0)" xlink:href="#W"/><use transform="matrix(0.05,0,0,0.05,15.949999999999998,0)" xlink:href="#ac"/><use transform="matrix(0.05,0,0,0.05,25.950000000000003,0)" xlink:href="#I"/><use transform="matrix(0.05,0,0,0.05,35.95,0)" xlink:href="#X"/><use transform="matrix(0.05,0,0,0.05,45.95,0)" xlink:href="#ad"/><use transform="matrix(0.05,0,0,0.05,54.95,0)" xlink:href="#E"/><use transform="matrix(0.05,0,0,0.05,64.95,0)" xlink:href="#H"/><use transform="matrix(0.05,0,0,0.05,68.9,0)" xlink:href="#V"/><use transform="matrix(0.05,0,0,0.05,78.9,0)" xlink:href="#I"/></g><g id="n"><use transform="matrix(0.05,0,0,0.05,0,0)" xlink:href="#Z"/><use transform="matrix(0.05,0,0,0.05,14.950000000000001,0)" xlink:href="#E"/><use transform="matrix(0.05,0,0,0.05,24.950000000000003,0)" xlink:href="#J"/><use transform="matrix(0.05,0,0,0.05,33.95,0)" xlink:href="#J"/></g></defs></g></svg>