<svg xmlns="http://www.w3.org/2000/svg" xmlns:xlink="http://www.w3.org/1999/xlink" xmlns:lucid="lucid" width="1261" height="380"><g transform="translate(-329 -1600)" lucid:page-tab-id="o_66QRD7KbzC"><path d="M0 1259.2h1870.4v1323.2H0z" fill="#fff"/><path d="M515.9 1620H1380v340H515.9z" stroke="#000" stroke-width="2" fill="#c7e8ac"/><use xlink:href="#a" transform="matrix(1,0,0,1,520.8900931751732,1625) translate(328.54999999999995 14.4)"/><use xlink:href="#b" transform="matrix(1,0,0,1,520.8900931751732,1625) translate(446.95 14.4)"/><use xlink:href="#c" transform="matrix(1,0,0,1,520.8900931751732,1625) translate(516.45 14.4)"/><use xlink:href="#d" transform="matrix(1,0,0,1,520.8900931751732,1625) translate(364.1 36)"/><use xlink:href="#e" transform="matrix(1,0,0,1,520.8900931751732,1625) translate(415.05 36)"/><path d="M720 1710h280v220H720z" stroke="#000" stroke-width="2" fill="#c1e4f7"/><use xlink:href="#a" transform="matrix(1,0,0,1,725,1715) translate(36.04999999999998 14.4)"/><use xlink:href="#b" transform="matrix(1,0,0,1,725,1715) translate(154.45 14.4)"/><use xlink:href="#f" transform="matrix(1,0,0,1,725,1715) translate(223.95000000000002 14.4)"/><use xlink:href="#g" transform="matrix(1,0,0,1,725,1715) translate(76.6 36)"/><use xlink:href="#e" transform="matrix(1,0,0,1,725,1715) translate(117.55 36)"/><path d="M577.8 1815.27h120v40h-120z" stroke="#000" stroke-opacity="0" stroke-width="2" fill="#fff" fill-opacity="0"/><use xlink:href="#h" transform="matrix(1,0,0,1,582.8028789133878,1820.2668924960406) translate(3.549999999999997 18.15)"/><use xlink:href="#i" transform="matrix(1,0,0,1,582.8028789133878,1820.2668924960406) translate(87.45 18.15)"/><path d="M780 1790h160v120H780z" stroke="#000" stroke-width="2" fill="#fff"/><use xlink:href="#j" transform="matrix(1,0,0,1,785,1795) translate(44.5 48.775)"/><use xlink:href="#k" transform="matrix(1,0,0,1,785,1795) translate(10.149999999999991 70.375)"/><use xlink:href="#l" transform="matrix(1,0,0,1,785,1795) translate(98.95 70.375)"/><path d="M578.9 1852.42h120v40h-120z" stroke="#000" stroke-opacity="0" stroke-width="2" fill="#fff" fill-opacity="0"/><use xlink:href="#m" transform="matrix(1,0,0,1,583.9014394566939,1857.423031307102) translate(6.599999999999994 18.15)"/><use xlink:href="#i" transform="matrix(1,0,0,1,583.9014394566939,1857.423031307102) translate(84.4 18.15)"/><path d="M1003.3 1815.27h160v40h-160z" stroke="#000" stroke-opacity="0" stroke-width="2" fill="#fff" fill-opacity="0"/><use xlink:href="#n" transform="matrix(1,0,0,1,1008.2956816299184,1820.2668924960406) translate(16.049999999999997 18.15)"/><use xlink:href="#o" transform="matrix(1,0,0,1,1008.2956816299184,1820.2668924960406) translate(45.05 18.15)"/><path d="M942 1850h218.5" stroke="#000" stroke-width="2" fill="none"/><path d="M942.03 1851H941v-2h1.03z"/><path d="M1175.76 1850l-14.26 4.64v-9.28z" stroke="#000" stroke-width="2"/><path d="M997.8 1850.23h160v40h-160z" stroke="#000" stroke-opacity="0" stroke-width="2" fill="#fff" fill-opacity="0"/><use xlink:href="#p" transform="matrix(1,0,0,1,1002.8028789133878,1855.2259102204898) translate(53.525 18.15)"/><path d="M1180 1790h160v120h-160z" stroke="#000" stroke-width="2" fill="#ffeca9"/><use xlink:href="#q" transform="matrix(1,0,0,1,1185,1795) translate(25.624999999999993 48.775)"/><use xlink:href="#r" transform="matrix(1,0,0,1,1185,1795) translate(33.099999999999994 70.375)"/><path d="M1025.92 1681H561v168h199.5v2H559v-172h466.92zM1261 1788h-2v-107h-20.78v-2H1261z"/><path d="M1261 1789h-2v-1.03h2zM775.76 1850l-14.26 4.64v-9.28z"/><path d="M779 1850l-18.5 6v-12zm-16.5 3.26l10.03-3.26-10.03-3.26z"/><g><use xlink:href="#s" transform="matrix(1,0,0,1,1025.916639876954,1669.2) translate(0 14.4)"/><use xlink:href="#t" transform="matrix(1,0,0,1,1025.916639876954,1669.2) translate(95.85000000000001 14.4)"/><use xlink:href="#u" transform="matrix(1,0,0,1,1025.916639876954,1669.2) translate(114.80000000000001 14.4)"/><use xlink:href="#v" transform="matrix(1,0,0,1,1025.916639876954,1669.2) translate(138.8 14.4)"/></g><path d="M1395.7 1724.3H1519v191.4h-123.3z" stroke="#000" stroke-opacity="0" stroke-width="2" fill="#fff" fill-opacity="0"/><g><use xlink:href="#w" transform="matrix(1,0,0,1,1400.7043183700816,1729.3000000000002) translate(16.549999999999997 20.0875)"/><use xlink:href="#x" transform="matrix(1,0,0,1,1400.7043183700816,1729.3000000000002) translate(14.149999999999999 41.6875)"/><use xlink:href="#y" transform="matrix(1,0,0,1,1400.7043183700816,1729.3000000000002) translate(57 63.2875)"/><use xlink:href="#z" transform="matrix(1,0,0,1,1400.7043183700816,1729.3000000000002) translate(35.525 84.88750000000002)"/><use xlink:href="#A" transform="matrix(1,0,0,1,1400.7043183700816,1729.3000000000002) translate(12.024999999999999 106.48750000000001)"/><use xlink:href="#B" transform="matrix(1,0,0,1,1400.7043183700816,1729.3000000000002) translate(61.975 106.48750000000001)"/><use xlink:href="#C" transform="matrix(1,0,0,1,1400.7043183700816,1729.3000000000002) translate(57 128.0875)"/><use xlink:href="#D" transform="matrix(1,0,0,1,1400.7043183700816,1729.3000000000002) translate(22.025 149.6875)"/><use xlink:href="#B" transform="matrix(1,0,0,1,1400.7043183700816,1729.3000000000002) translate(51.975 149.6875)"/><use xlink:href="#E" transform="matrix(1,0,0,1,1400.7043183700816,1729.3000000000002) translate(2.0999999999999943 171.2875)"/><use xlink:href="#F" transform="matrix(1,0,0,1,1400.7043183700816,1729.3000000000002) translate(71.9 171.2875)"/></g><path d="M1342 1850h198.5" stroke="#000" stroke-width="2" fill="none"/><path d="M1342.03 1851H1341v-2h1.03z"/><path d="M1555.76 1850l-14.26 4.64v-9.28z" stroke="#000" stroke-width="2"/><path d="M380 1770h120v80.23H380z" stroke="#000" stroke-opacity="0" stroke-width="2" fill="#fff" fill-opacity="0"/><g><use xlink:href="#G" transform="matrix(1,0,0,1,385,1775) translate(0.14999999999999147 16.61875)"/><use xlink:href="#H" transform="matrix(1,0,0,1,385,1775) translate(65 16.61875)"/><use xlink:href="#I" transform="matrix(1,0,0,1,385,1775) translate(55 38.21875)"/><use xlink:href="#J" transform="matrix(1,0,0,1,385,1775) translate(3.549999999999997 59.81875)"/><use xlink:href="#i" transform="matrix(1,0,0,1,385,1775) translate(87.45 59.81875)"/></g><path d="M341 1850h200.5M341.03 1850H340" stroke="#000" stroke-width="2" fill="none"/><path d="M556.76 1850l-14.26 4.64v-9.28z" stroke="#000" stroke-width="2"/><defs><path d="M169-182c-1-43-94-46-97-3 18 66 151 10 154 114 3 95-165 93-204 36-6-8-10-19-12-30l50-8c3 46 112 56 116 5-17-69-150-10-154-114-4-87 153-88 188-35 5 8 8 18 10 28" id="K"/><path d="M238-95c0 69-44 99-111 99C63 4 22-25 22-93v-155h51v151c-1 38 19 59 55 60 90 1 49-130 58-211h52v153" id="L"/><path d="M240-174c0 40-23 61-54 70L253 0h-59l-57-94H76V0H24v-248c93 4 217-23 216 74zM76-134c48-2 112 12 112-38 0-48-66-32-112-35v73" id="M"/><path d="M140-251c80 0 125 45 125 126S219 4 139 4C58 4 15-44 15-125s44-126 125-126zm-1 214c52 0 73-35 73-88 0-50-21-86-72-86-52 0-73 35-73 86s22 88 72 88" id="N"/><path d="M67-125c0 54 23 88 75 88 28 0 53-7 68-21v-34h-60v-39h108v91C232-14 192 4 140 4 58 4 20-42 15-125 8-236 126-280 215-234c19 10 29 26 37 47l-47 15c-11-23-29-39-63-39-53 1-75 33-75 86" id="O"/><path d="M199 0l-22-63H83L61 0H9l90-248h61L250 0h-51zm-33-102l-36-108c-10 38-24 72-36 108h72" id="P"/><path d="M136-208V0H84v-208H4v-40h212v40h-80" id="Q"/><path d="M24 0v-248h195v40H76v63h132v40H76v65h150V0H24" id="R"/><g id="a"><use transform="matrix(0.05,0,0,0.05,0,0)" xlink:href="#K"/><use transform="matrix(0.05,0,0,0.05,12,0)" xlink:href="#L"/><use transform="matrix(0.05,0,0,0.05,24.950000000000003,0)" xlink:href="#M"/><use transform="matrix(0.05,0,0,0.05,37.900000000000006,0)" xlink:href="#M"/><use transform="matrix(0.05,0,0,0.05,50.85000000000001,0)" xlink:href="#N"/><use transform="matrix(0.05,0,0,0.05,64.85000000000001,0)" xlink:href="#O"/><use transform="matrix(0.05,0,0,0.05,78.85000000000001,0)" xlink:href="#P"/><use transform="matrix(0.05,0,0,0.05,90.45000000000002,0)" xlink:href="#Q"/><use transform="matrix(0.05,0,0,0.05,101.40000000000002,0)" xlink:href="#R"/></g><path d="M230 0l2-204L168 0h-37L68-204 70 0H24v-248h70l56 185 57-185h69V0h-46" id="S"/><path d="M24-248c120-7 223 5 221 122C244-46 201 0 124 0H24v-248zM76-40c74 7 117-18 117-86 0-67-45-88-117-82v168" id="T"/><path d="M24 0v-248h52v208h133V0H24" id="U"/><g id="b"><use transform="matrix(0.05,0,0,0.05,0,0)" xlink:href="#S"/><use transform="matrix(0.05,0,0,0.05,14.950000000000001,0)" xlink:href="#N"/><use transform="matrix(0.05,0,0,0.05,28.950000000000003,0)" xlink:href="#T"/><use transform="matrix(0.05,0,0,0.05,41.900000000000006,0)" xlink:href="#R"/><use transform="matrix(0.05,0,0,0.05,53.900000000000006,0)" xlink:href="#U"/></g><path d="M182-182c0 78-84 86-111 141h115V0H12c-6-101 99-100 120-180 1-22-12-31-33-32-23 0-32 14-35 34l-49-3c5-45 32-70 84-70 51 0 83 22 83 69" id="V"/><use transform="matrix(0.05,0,0,0.05,0,0)" xlink:href="#V" id="c"/><path d="M87 75C49 33 22-17 22-94c0-76 28-126 65-167h31c-38 41-64 92-64 168S80 34 118 75H87" id="W"/><path d="M101-251c82-7 93 87 43 132L82-64C71-53 59-42 53-27h129V0H18c2-99 128-94 128-182 0-28-16-43-45-43s-46 15-49 41l-32-3c6-41 34-60 81-64" id="X"/><path d="M101-251c68 0 85 55 85 127S166 4 100 4C33 4 14-52 14-124c0-73 17-127 87-127zm-1 229c47 0 54-49 54-102s-4-102-53-102c-51 0-55 48-55 102 0 53 5 102 54 102" id="Y"/><g id="d"><use transform="matrix(0.05,0,0,0.05,0,0)" xlink:href="#W"/><use transform="matrix(0.05,0,0,0.05,5.95,0)" xlink:href="#X"/><use transform="matrix(0.05,0,0,0.05,15.949999999999998,0)" xlink:href="#Y"/><use transform="matrix(0.05,0,0,0.05,25.950000000000003,0)" xlink:href="#Y"/><use transform="matrix(0.05,0,0,0.05,35.95,0)" xlink:href="#Y"/></g><path d="M185-189c-5-48-123-54-124 2 14 75 158 14 163 119 3 78-121 87-175 55-17-10-28-26-33-46l33-7c5 56 141 63 141-1 0-78-155-14-162-118-5-82 145-84 179-34 5 7 8 16 11 25" id="Z"/><path d="M141-36C126-15 110 5 73 4 37 3 15-17 15-53c-1-64 63-63 125-63 3-35-9-54-41-54-24 1-41 7-42 31l-33-3c5-37 33-52 76-52 45 0 72 20 72 64v82c-1 20 7 32 28 27v20c-31 9-61-2-59-35zM48-53c0 20 12 33 32 33 41-3 63-29 60-74-43 2-92-5-92 41" id="aa"/><path d="M210-169c-67 3-38 105-44 169h-31v-121c0-29-5-50-35-48C34-165 62-65 56 0H25l-1-190h30c1 10-1 24 2 32 10-44 99-50 107 0 11-21 27-35 58-36 85-2 47 119 55 194h-31v-121c0-29-5-49-35-48" id="ab"/><path d="M115-194c55 1 70 41 70 98S169 2 115 4C84 4 66-9 55-30l1 105H24l-1-265h31l2 30c10-21 28-34 59-34zm-8 174c40 0 45-34 45-75s-6-73-45-74c-42 0-51 32-51 76 0 43 10 73 51 73" id="ac"/><path d="M24 0v-261h32V0H24" id="ad"/><path d="M100-194c63 0 86 42 84 106H49c0 40 14 67 53 68 26 1 43-12 49-29l28 8c-11 28-37 45-77 45C44 4 14-33 15-96c1-61 26-98 85-98zm52 81c6-60-76-77-97-28-3 7-6 17-6 28h103" id="ae"/><path d="M135-143c-3-34-86-38-87 0 15 53 115 12 119 90S17 21 10-45l28-5c4 36 97 45 98 0-10-56-113-15-118-90-4-57 82-63 122-42 12 7 21 19 24 35" id="af"/><path d="M33-261c38 41 65 92 65 168S71 34 33 75H2C39 34 66-17 66-93S39-220 2-261h31" id="ag"/><g id="e"><use transform="matrix(0.05,0,0,0.05,0,0)" xlink:href="#Z"/><use transform="matrix(0.05,0,0,0.05,12,0)" xlink:href="#aa"/><use transform="matrix(0.05,0,0,0.05,22,0)" xlink:href="#ab"/><use transform="matrix(0.05,0,0,0.05,36.95,0)" xlink:href="#ac"/><use transform="matrix(0.05,0,0,0.05,46.95,0)" xlink:href="#ad"/><use transform="matrix(0.05,0,0,0.05,50.900000000000006,0)" xlink:href="#ae"/><use transform="matrix(0.05,0,0,0.05,60.900000000000006,0)" xlink:href="#af"/><use transform="matrix(0.05,0,0,0.05,69.9,0)" xlink:href="#ag"/></g><path d="M23 0v-37h61v-169l-59 37v-38l62-41h46v211h57V0H23" id="ah"/><use transform="matrix(0.05,0,0,0.05,0,0)" xlink:href="#ah" id="f"/><g id="g"><use transform="matrix(0.05,0,0,0.05,0,0)" xlink:href="#W"/><use transform="matrix(0.05,0,0,0.05,5.95,0)" xlink:href="#X"/><use transform="matrix(0.05,0,0,0.05,15.949999999999998,0)" xlink:href="#Y"/><use transform="matrix(0.05,0,0,0.05,25.950000000000003,0)" xlink:href="#Y"/></g><path d="M143 4C61 4 22-44 18-125c-5-107 100-154 193-111 17 8 29 25 37 43l-32 9c-13-25-37-40-76-40-61 0-88 39-88 99 0 61 29 100 91 101 35 0 62-11 79-27v-45h-74v-28h105v86C228-13 192 4 143 4" id="ai"/><path d="M100-194c62-1 85 37 85 99 1 63-27 99-86 99S16-35 15-95c0-66 28-99 85-99zM99-20c44 1 53-31 53-75 0-43-8-75-51-75s-53 32-53 75 10 74 51 75" id="aj"/><path d="M59-47c-2 24 18 29 38 22v24C64 9 27 4 27-40v-127H5v-23h24l9-43h21v43h35v23H59v120" id="ak"/><path d="M114-163C36-179 61-72 57 0H25l-1-190h30c1 12-1 29 2 39 6-27 23-49 58-41v29" id="al"/><path d="M179-190L93 31C79 59 56 82 12 73V49c39 6 53-20 64-50L1-190h34L92-34l54-156h33" id="am"/><g id="h"><use transform="matrix(0.05,0,0,0.05,0,0)" xlink:href="#ai"/><use transform="matrix(0.05,0,0,0.05,14,0)" xlink:href="#ae"/><use transform="matrix(0.05,0,0,0.05,24,0)" xlink:href="#aj"/><use transform="matrix(0.05,0,0,0.05,34,0)" xlink:href="#ab"/><use transform="matrix(0.05,0,0,0.05,48.95,0)" xlink:href="#ae"/><use transform="matrix(0.05,0,0,0.05,58.95,0)" xlink:href="#ak"/><use transform="matrix(0.05,0,0,0.05,63.95,0)" xlink:href="#al"/><use transform="matrix(0.05,0,0,0.05,69.9,0)" xlink:href="#am"/></g><path d="M141 0L90-78 38 0H4l68-98-65-92h35l48 74 47-74h35l-64 92 68 98h-35" id="an"/><path d="M155-56V0h-30v-56H8v-25l114-167h33v167h35v25h-35zm-30-156c-27 46-58 90-88 131h88v-131" id="ao"/><g id="i"><use transform="matrix(0.05,0,0,0.05,0,0)" xlink:href="#an"/><use transform="matrix(0.05,0,0,0.05,9,0)" xlink:href="#ao"/></g><path d="M205 0l-28-72H64L36 0H1l101-248h38L239 0h-34zm-38-99l-47-123c-12 45-31 82-46 123h93" id="ap"/><path d="M115-194c53 0 69 39 70 98 0 66-23 100-70 100C84 3 66-7 56-30L54 0H23l1-261h32v101c10-23 28-34 59-34zm-8 174c40 0 45-34 45-75 0-40-5-75-45-74-42 0-51 32-51 76 0 43 10 73 51 73" id="aq"/><path d="M145-31C134-9 116 4 85 4 32 4 16-35 15-94c0-59 17-99 70-100 32-1 48 14 60 33 0-11-1-24 2-32h30l-1 268h-32zM93-21c41 0 51-33 51-76s-8-73-50-73c-40 0-46 35-46 75s5 74 45 74" id="ar"/><path d="M84 4C-5 8 30-112 23-190h32v120c0 31 7 50 39 49 72-2 45-101 50-169h31l1 190h-30c-1-10 1-25-2-33-11 22-28 36-60 37" id="as"/><g id="j"><use transform="matrix(0.05,0,0,0.05,0,0)" xlink:href="#ap"/><use transform="matrix(0.05,0,0,0.05,12,0)" xlink:href="#aq"/><use transform="matrix(0.05,0,0,0.05,22,0)" xlink:href="#aa"/><use transform="matrix(0.05,0,0,0.05,32,0)" xlink:href="#ar"/><use transform="matrix(0.05,0,0,0.05,42,0)" xlink:href="#as"/><use transform="matrix(0.05,0,0,0.05,52,0)" xlink:href="#af"/></g><path d="M24-231v-30h32v30H24zM24 0v-190h32V0H24" id="at"/><path d="M117-194c89-4 53 116 60 194h-32v-121c0-31-8-49-39-48C34-167 62-67 57 0H25l-1-190h30c1 10-1 24 2 32 11-22 29-35 61-36" id="au"/><g id="k"><use transform="matrix(0.05,0,0,0.05,0,0)" xlink:href="#Z"/><use transform="matrix(0.05,0,0,0.05,12,0)" xlink:href="#at"/><use transform="matrix(0.05,0,0,0.05,15.949999999999998,0)" xlink:href="#ab"/><use transform="matrix(0.05,0,0,0.05,30.899999999999995,0)" xlink:href="#as"/><use transform="matrix(0.05,0,0,0.05,40.9,0)" xlink:href="#ad"/><use transform="matrix(0.05,0,0,0.05,44.85,0)" xlink:href="#aa"/><use transform="matrix(0.05,0,0,0.05,54.85,0)" xlink:href="#ak"/><use transform="matrix(0.05,0,0,0.05,59.85,0)" xlink:href="#at"/><use transform="matrix(0.05,0,0,0.05,63.800000000000004,0)" xlink:href="#aj"/><use transform="matrix(0.05,0,0,0.05,73.80000000000001,0)" xlink:href="#au"/></g><path d="M126-127c33 6 58 20 58 59 0 88-139 92-164 29-3-8-5-16-6-25l32-3c6 27 21 44 54 44 32 0 52-15 52-46 0-38-36-46-79-43v-28c39 1 72-4 72-42 0-27-17-43-46-43-28 0-47 15-49 41l-32-3c6-42 35-63 81-64 48-1 79 21 79 65 0 36-21 52-52 59" id="av"/><g id="l"><use transform="matrix(0.05,0,0,0.05,0,0)" xlink:href="#W"/><use transform="matrix(0.05,0,0,0.05,5.95,0)" xlink:href="#av"/><use transform="matrix(0.05,0,0,0.05,15.949999999999998,0)" xlink:href="#Y"/><use transform="matrix(0.05,0,0,0.05,25.950000000000003,0)" xlink:href="#af"/><use transform="matrix(0.05,0,0,0.05,34.95,0)" xlink:href="#ag"/></g><path d="M240 0l2-218c-23 76-54 145-80 218h-23L58-218 59 0H30v-248h44l77 211c21-75 51-140 76-211h43V0h-30" id="aw"/><g id="m"><use transform="matrix(0.05,0,0,0.05,0,0)" xlink:href="#aw"/><use transform="matrix(0.05,0,0,0.05,14.950000000000001,0)" xlink:href="#aa"/><use transform="matrix(0.05,0,0,0.05,24.950000000000003,0)" xlink:href="#ak"/><use transform="matrix(0.05,0,0,0.05,29.950000000000003,0)" xlink:href="#ae"/><use transform="matrix(0.05,0,0,0.05,39.95,0)" xlink:href="#al"/><use transform="matrix(0.05,0,0,0.05,45.900000000000006,0)" xlink:href="#at"/><use transform="matrix(0.05,0,0,0.05,49.85000000000001,0)" xlink:href="#aa"/><use transform="matrix(0.05,0,0,0.05,59.85,0)" xlink:href="#ad"/><use transform="matrix(0.05,0,0,0.05,63.80000000000001,0)" xlink:href="#af"/></g><path d="M27 0v-27h64v-190l-56 39v-29l58-41h29v221h61V0H27" id="ax"/><g id="n"><use transform="matrix(0.05,0,0,0.05,0,0)" xlink:href="#ax"/><use transform="matrix(0.05,0,0,0.05,10,0)" xlink:href="#af"/><use transform="matrix(0.05,0,0,0.05,19,0)" xlink:href="#ak"/></g><path d="M30 0v-248h187v28H63v79h144v27H63v87h162V0H30" id="ay"/><path d="M177-190C167-65 218 103 67 71c-23-6-38-20-44-43l32-5c15 47 100 32 89-28v-30C133-14 115 1 83 1 29 1 15-40 15-95c0-56 16-97 71-98 29-1 48 16 59 35 1-10 0-23 2-32h30zM94-22c36 0 50-32 50-73 0-42-14-75-50-75-39 0-46 34-46 75s6 73 46 73" id="az"/><path d="M108 0H70L1-190h34L89-25l56-165h34" id="aA"/><g id="o"><use transform="matrix(0.05,0,0,0.05,0,0)" xlink:href="#ay"/><use transform="matrix(0.05,0,0,0.05,12,0)" xlink:href="#at"/><use transform="matrix(0.05,0,0,0.05,15.949999999999998,0)" xlink:href="#az"/><use transform="matrix(0.05,0,0,0.05,25.950000000000003,0)" xlink:href="#ae"/><use transform="matrix(0.05,0,0,0.05,35.95,0)" xlink:href="#au"/><use transform="matrix(0.05,0,0,0.05,45.95,0)" xlink:href="#aA"/><use transform="matrix(0.05,0,0,0.05,54.95,0)" xlink:href="#aa"/><use transform="matrix(0.05,0,0,0.05,64.95,0)" xlink:href="#ad"/><use transform="matrix(0.05,0,0,0.05,68.9,0)" xlink:href="#as"/><use transform="matrix(0.05,0,0,0.05,78.9,0)" xlink:href="#ae"/></g><g id="p"><use transform="matrix(0.05,0,0,0.05,0,0)" xlink:href="#aw"/><use transform="matrix(0.05,0,0,0.05,14.950000000000001,0)" xlink:href="#aa"/><use transform="matrix(0.05,0,0,0.05,24.950000000000003,0)" xlink:href="#af"/><use transform="matrix(0.05,0,0,0.05,33.95,0)" xlink:href="#af"/></g><path d="M16-82v-28h88v28H16" id="aB"/><path d="M212-179c-10-28-35-45-73-45-59 0-87 40-87 99 0 60 29 101 89 101 43 0 62-24 78-52l27 14C228-24 195 4 139 4 59 4 22-46 18-125c-6-104 99-153 187-111 19 9 31 26 39 46" id="aC"/><g id="q"><use transform="matrix(0.05,0,0,0.05,0,0)" xlink:href="#aw"/><use transform="matrix(0.05,0,0,0.05,14.950000000000001,0)" xlink:href="#aj"/><use transform="matrix(0.05,0,0,0.05,24.950000000000003,0)" xlink:href="#au"/><use transform="matrix(0.05,0,0,0.05,34.95,0)" xlink:href="#ak"/><use transform="matrix(0.05,0,0,0.05,39.95,0)" xlink:href="#ae"/><use transform="matrix(0.05,0,0,0.05,49.95,0)" xlink:href="#aB"/><use transform="matrix(0.05,0,0,0.05,55.900000000000006,0)" xlink:href="#aC"/><use transform="matrix(0.05,0,0,0.05,68.85000000000001,0)" xlink:href="#aa"/><use transform="matrix(0.05,0,0,0.05,78.85000000000001,0)" xlink:href="#al"/><use transform="matrix(0.05,0,0,0.05,84.80000000000001,0)" xlink:href="#ad"/><use transform="matrix(0.05,0,0,0.05,88.75000000000001,0)" xlink:href="#aj"/></g><g id="r"><use transform="matrix(0.05,0,0,0.05,0,0)" xlink:href="#Z"/><use transform="matrix(0.05,0,0,0.05,12,0)" xlink:href="#at"/><use transform="matrix(0.05,0,0,0.05,15.949999999999998,0)" xlink:href="#ab"/><use transform="matrix(0.05,0,0,0.05,30.899999999999995,0)" xlink:href="#as"/><use transform="matrix(0.05,0,0,0.05,40.9,0)" xlink:href="#ad"/><use transform="matrix(0.05,0,0,0.05,44.85,0)" xlink:href="#aa"/><use transform="matrix(0.05,0,0,0.05,54.85,0)" xlink:href="#ak"/><use transform="matrix(0.05,0,0,0.05,59.85,0)" xlink:href="#at"/><use transform="matrix(0.05,0,0,0.05,63.800000000000004,0)" xlink:href="#aj"/><use transform="matrix(0.05,0,0,0.05,73.80000000000001,0)" xlink:href="#au"/></g><path d="M232-93c-1 65-40 97-104 97C67 4 28-28 28-90v-158h33c8 89-33 224 67 224 102 0 64-133 71-224h33v155" id="aD"/><path d="M96-169c-40 0-48 33-48 73s9 75 48 75c24 0 41-14 43-38l32 2c-6 37-31 61-74 61-59 0-76-41-82-99-10-93 101-131 147-64 4 7 5 14 7 22l-32 3c-4-21-16-35-41-35" id="aE"/><g id="s"><use transform="matrix(0.05,0,0,0.05,0,0)" xlink:href="#aD"/><use transform="matrix(0.05,0,0,0.05,12.950000000000001,0)" xlink:href="#au"/><use transform="matrix(0.05,0,0,0.05,22.950000000000003,0)" xlink:href="#aE"/><use transform="matrix(0.05,0,0,0.05,31.950000000000003,0)" xlink:href="#ae"/><use transform="matrix(0.05,0,0,0.05,41.95,0)" xlink:href="#al"/><use transform="matrix(0.05,0,0,0.05,47.900000000000006,0)" xlink:href="#ak"/><use transform="matrix(0.05,0,0,0.05,52.900000000000006,0)" xlink:href="#aa"/><use transform="matrix(0.05,0,0,0.05,62.900000000000006,0)" xlink:href="#at"/><use transform="matrix(0.05,0,0,0.05,66.85000000000001,0)" xlink:href="#au"/><use transform="matrix(0.05,0,0,0.05,76.85000000000001,0)" xlink:href="#ak"/><use transform="matrix(0.05,0,0,0.05,81.85000000000001,0)" xlink:href="#am"/></g><g id="t"><use transform="matrix(0.05,0,0,0.05,0,0)" xlink:href="#at"/><use transform="matrix(0.05,0,0,0.05,3.95,0)" xlink:href="#au"/></g><path d="M134-131c28 9 52 24 51 62-1 50-34 73-85 73S17-19 16-69c0-36 21-54 49-61-75-25-45-126 34-121 46 3 78 18 79 63 0 33-17 51-44 57zm-34-11c31 1 46-15 46-44 0-28-17-43-47-42-29 0-46 13-45 42 1 28 16 44 46 44zm1 122c35 0 51-18 51-52 0-30-18-46-53-46-33 0-51 17-51 47 0 34 19 51 53 51" id="aF"/><g id="u"><use transform="matrix(0.05,0,0,0.05,0,0)" xlink:href="#aF"/><use transform="matrix(0.05,0,0,0.05,10,0)" xlink:href="#an"/></g><path d="M137 0h-34L2-248h35l83 218 83-218h36" id="aG"/><g id="v"><use transform="matrix(0.05,0,0,0.05,0,0)" xlink:href="#aG"/><use transform="matrix(0.05,0,0,0.05,10.65,0)" xlink:href="#aa"/><use transform="matrix(0.05,0,0,0.05,20.65,0)" xlink:href="#al"/><use transform="matrix(0.05,0,0,0.05,26.599999999999994,0)" xlink:href="#at"/><use transform="matrix(0.05,0,0,0.05,30.549999999999997,0)" xlink:href="#aa"/><use transform="matrix(0.05,0,0,0.05,40.55,0)" xlink:href="#aq"/><use transform="matrix(0.05,0,0,0.05,50.55,0)" xlink:href="#ad"/><use transform="matrix(0.05,0,0,0.05,54.5,0)" xlink:href="#ae"/><use transform="matrix(0.05,0,0,0.05,64.5,0)" xlink:href="#af"/></g><path fill="#c92d39" d="M140-251c80 0 125 45 125 126S219 4 139 4C58 4 15-44 15-125s44-126 125-126zm-1 214c52 0 73-35 73-88 0-50-21-86-72-86-52 0-73 35-73 86s22 88 72 88" id="aH"/><path fill="#c92d39" d="M135-194c52 0 70 43 70 98 0 56-19 99-73 100-30 1-46-15-58-35L72 0H24l1-261h50v104c11-23 29-37 60-37zM114-30c31 0 40-27 40-66 0-37-7-63-39-63s-41 28-41 65c0 36 8 64 40 64" id="aI"/><path fill="#c92d39" d="M25-224v-37h50v37H25zM75 22c2 45-34 59-81 51V38c22 5 31-5 31-27v-201h50V22" id="aJ"/><path fill="#c92d39" d="M185-48c-13 30-37 53-82 52C43 2 14-33 14-96s30-98 90-98c62 0 83 45 84 108H66c0 31 8 55 39 56 18 0 30-7 34-22zm-45-69c5-46-57-63-70-21-2 6-4 13-4 21h74" id="aK"/><path fill="#c92d39" d="M190-63c-7 42-38 67-86 67-59 0-84-38-90-98-12-110 154-137 174-36l-49 2c-2-19-15-32-35-32-30 0-35 28-38 64-6 74 65 87 74 30" id="aL"/><path fill="#c92d39" d="M115-3C79 11 28 4 28-45v-112H4v-33h27l15-45h31v45h36v33H77v99c-1 23 16 31 38 25v30" id="aM"/><path fill="#c92d39" d="M25-224v-37h50v37H25zM25 0v-190h50V0H25" id="aN"/><path fill="#c92d39" d="M128 0H69L1-190h53L99-40l48-150h52" id="aO"/><g id="w"><use transform="matrix(0.05,0,0,0.05,0,0)" xlink:href="#aH"/><use transform="matrix(0.05,0,0,0.05,14,0)" xlink:href="#aI"/><use transform="matrix(0.05,0,0,0.05,24.950000000000003,0)" xlink:href="#aJ"/><use transform="matrix(0.05,0,0,0.05,29.950000000000003,0)" xlink:href="#aK"/><use transform="matrix(0.05,0,0,0.05,39.95,0)" xlink:href="#aL"/><use transform="matrix(0.05,0,0,0.05,49.95,0)" xlink:href="#aM"/><use transform="matrix(0.05,0,0,0.05,55.900000000000006,0)" xlink:href="#aN"/><use transform="matrix(0.05,0,0,0.05,60.900000000000006,0)" xlink:href="#aO"/><use transform="matrix(0.05,0,0,0.05,70.9,0)" xlink:href="#aK"/></g><path fill="#c92d39" d="M76-208v77h127v40H76V0H24v-248h183v40H76" id="aP"/><path fill="#c92d39" d="M85 4C-2 5 27-109 22-190h50c7 57-23 150 33 157 60-5 35-97 40-157h50l1 190h-47c-2-12 1-28-3-38-12 25-28 42-61 42" id="aQ"/><path fill="#c92d39" d="M135-194c87-1 58 113 63 194h-50c-7-57 23-157-34-157-59 0-34 97-39 157H25l-1-190h47c2 12-1 28 3 38 12-26 28-41 61-42" id="aR"/><path fill="#c92d39" d="M110-194c64 0 96 36 96 99 0 64-35 99-97 99-61 0-95-36-95-99 0-62 34-99 96-99zm-1 164c35 0 45-28 45-65 0-40-10-65-43-65-34 0-45 26-45 65 0 36 10 65 43 65" id="aS"/><path fill="#c92d39" d="M137-138c1-29-70-34-71-4 15 46 118 7 119 86 1 83-164 76-172 9l43-7c4 19 20 25 44 25 33 8 57-30 24-41C81-84 22-81 20-136c-2-80 154-74 161-7" id="aT"/><g id="x"><use transform="matrix(0.05,0,0,0.05,0,0)" xlink:href="#aP"/><use transform="matrix(0.05,0,0,0.05,10.950000000000001,0)" xlink:href="#aQ"/><use transform="matrix(0.05,0,0,0.05,21.900000000000002,0)" xlink:href="#aR"/><use transform="matrix(0.05,0,0,0.05,32.85,0)" xlink:href="#aL"/><use transform="matrix(0.05,0,0,0.05,42.85,0)" xlink:href="#aM"/><use transform="matrix(0.05,0,0,0.05,48.800000000000004,0)" xlink:href="#aN"/><use transform="matrix(0.05,0,0,0.05,53.800000000000004,0)" xlink:href="#aS"/><use transform="matrix(0.05,0,0,0.05,64.75,0)" xlink:href="#aR"/><use transform="matrix(0.05,0,0,0.05,75.7,0)" xlink:href="#aT"/></g><g id="z"><use transform="matrix(0.05,0,0,0.05,0,0)" xlink:href="#aw"/><use transform="matrix(0.05,0,0,0.05,14.950000000000001,0)" xlink:href="#aa"/><use transform="matrix(0.05,0,0,0.05,24.950000000000003,0)" xlink:href="#af"/><use transform="matrix(0.05,0,0,0.05,33.95,0)" xlink:href="#af"/></g><g id="A"><use transform="matrix(0.05,0,0,0.05,0,0)" xlink:href="#aw"/><use transform="matrix(0.05,0,0,0.05,14.950000000000001,0)" xlink:href="#ae"/><use transform="matrix(0.05,0,0,0.05,24.950000000000003,0)" xlink:href="#aa"/><use transform="matrix(0.05,0,0,0.05,34.95,0)" xlink:href="#au"/></g><path d="M30 0v-248h33v221h125V0H30" id="aU"/><path d="M85-194c31 0 48 13 60 33l-1-100h32l1 261h-30c-2-10 0-23-3-31C134-8 116 4 85 4 32 4 16-35 15-94c0-66 23-100 70-100zm9 24c-40 0-46 34-46 75 0 40 6 74 45 74 42 0 51-32 51-76 0-42-9-74-50-73" id="aV"/><g id="B"><use transform="matrix(0.05,0,0,0.05,0,0)" xlink:href="#aU"/><use transform="matrix(0.05,0,0,0.05,10,0)" xlink:href="#aj"/><use transform="matrix(0.05,0,0,0.05,20,0)" xlink:href="#aa"/><use transform="matrix(0.05,0,0,0.05,30,0)" xlink:href="#aV"/></g><path d="M30-248c118-7 216 8 213 122C240-48 200 0 122 0H30v-248zM63-27c89 8 146-16 146-99s-60-101-146-95v194" id="aW"/><g id="D"><use transform="matrix(0.05,0,0,0.05,0,0)" xlink:href="#Z"/><use transform="matrix(0.05,0,0,0.05,12,0)" xlink:href="#aW"/></g><path d="M233-177c-1 41-23 64-60 70L243 0h-38l-65-103H63V0H30v-248c88 3 205-21 203 71zM63-129c60-2 137 13 137-47 0-61-80-42-137-45v92" id="aX"/><g id="E"><use transform="matrix(0.05,0,0,0.05,0,0)" xlink:href="#aX"/><use transform="matrix(0.05,0,0,0.05,12.950000000000001,0)" xlink:href="#ae"/><use transform="matrix(0.05,0,0,0.05,22.950000000000003,0)" xlink:href="#ad"/><use transform="matrix(0.05,0,0,0.05,26.900000000000002,0)" xlink:href="#at"/><use transform="matrix(0.05,0,0,0.05,30.85,0)" xlink:href="#aa"/><use transform="matrix(0.05,0,0,0.05,40.85,0)" xlink:href="#aq"/><use transform="matrix(0.05,0,0,0.05,50.85,0)" xlink:href="#ad"/><use transform="matrix(0.05,0,0,0.05,54.800000000000004,0)" xlink:href="#ae"/></g><g id="F"><use transform="matrix(0.05,0,0,0.05,0,0)" xlink:href="#aU"/><use transform="matrix(0.05,0,0,0.05,10,0)" xlink:href="#aj"/><use transform="matrix(0.05,0,0,0.05,20,0)" xlink:href="#aa"/><use transform="matrix(0.05,0,0,0.05,30,0)" xlink:href="#aV"/></g><path fill="#c92d39" d="M24-248c120-7 223 5 221 122C244-46 201 0 124 0H24v-248zM76-40c74 7 117-18 117-86 0-67-45-88-117-82v168" id="aY"/><path fill="#c92d39" d="M195-6C206 82 75 100 31 46c-4-6-6-13-8-21l49-6c3 16 16 24 34 25 40 0 42-37 40-79-11 22-30 35-61 35-53 0-70-43-70-97 0-56 18-96 73-97 30 0 46 14 59 34l2-30h47zm-90-29c32 0 41-27 41-63 0-35-9-62-40-62-32 0-39 29-40 63 0 36 9 62 39 62" id="aZ"/><g id="G"><use transform="matrix(0.05,0,0,0.05,0,0)" xlink:href="#aY"/><use transform="matrix(0.05,0,0,0.05,12.950000000000001,0)" xlink:href="#aK"/><use transform="matrix(0.05,0,0,0.05,22.950000000000003,0)" xlink:href="#aT"/><use transform="matrix(0.05,0,0,0.05,32.95,0)" xlink:href="#aN"/><use transform="matrix(0.05,0,0,0.05,37.95,0)" xlink:href="#aZ"/><use transform="matrix(0.05,0,0,0.05,48.900000000000006,0)" xlink:href="#aR"/></g><path fill="#c92d39" d="M24-248c93 1 206-16 204 79-1 75-69 88-152 82V0H24v-248zm52 121c47 0 100 7 100-41 0-47-54-39-100-39v80" id="ba"/><g id="H"><use transform="matrix(0.05,0,0,0.05,0,0)" xlink:href="#ba"/><use transform="matrix(0.05,0,0,0.05,12,0)" xlink:href="#aS"/><use transform="matrix(0.05,0,0,0.05,22.950000000000003,0)" xlink:href="#aN"/><use transform="matrix(0.05,0,0,0.05,27.950000000000003,0)" xlink:href="#aR"/><use transform="matrix(0.05,0,0,0.05,38.900000000000006,0)" xlink:href="#aM"/></g><g id="J"><use transform="matrix(0.05,0,0,0.05,0,0)" xlink:href="#ai"/><use transform="matrix(0.05,0,0,0.05,14,0)" xlink:href="#ae"/><use transform="matrix(0.05,0,0,0.05,24,0)" xlink:href="#aj"/><use transform="matrix(0.05,0,0,0.05,34,0)" xlink:href="#ab"/><use transform="matrix(0.05,0,0,0.05,48.95,0)" xlink:href="#ae"/><use transform="matrix(0.05,0,0,0.05,58.95,0)" xlink:href="#ak"/><use transform="matrix(0.05,0,0,0.05,63.95,0)" xlink:href="#al"/><use transform="matrix(0.05,0,0,0.05,69.9,0)" xlink:href="#am"/></g></defs></g></svg>